<svg xmlns="http://www.w3.org/2000/svg" width="27" height="36.05" viewBox="0 0 27 36.05"><defs><style>.cls-1{fill:#f2652e;}</style></defs><title>map</title><g id="Layer_2" data-name="Layer 2"><g id="Layer_3" data-name="Layer 3"><path class="cls-1" d="M13.54,36.05a78.84,78.84,0,0,1-8-9.57A37.79,37.79,0,0,1,.67,17.37C-1.87,10.1,3,1.2,11.86.1A13.46,13.46,0,0,1,27,14.08a15.43,15.43,0,0,1-1.67,5.84,53.82,53.82,0,0,1-8,11.86C16.13,33.21,14.85,34.58,13.54,36.05ZM7.12,13.49A6.39,6.39,0,1,0,13.52,7.1,6.4,6.4,0,0,0,7.12,13.49Z"/></g></g></svg>